<?xml version="1.0" encoding="UTF-8"?>
<svg version="1.1" xmlns="http://www.w3.org/2000/svg" width="32" height="31">
<path d="M0 0 C10.56 0 21.12 0 32 0 C32 10.23 32 20.46 32 31 C21.44 31 10.88 31 0 31 C0 20.77 0 10.54 0 0 Z " fill="#0C0D0C" transform="translate(0,0)"/>
<path d="M0 0 C0.99 0 1.98 0 3 0 C3 1.98 3 3.96 3 6 C3.66 6 4.32 6 5 6 C5 6.99 5 7.98 5 9 C4.34 9 3.68 9 3 9 C3 9.99 3 10.98 3 12 C2.01 12 1.02 12 0 12 C0 11.01 0 10.02 0 9 C-2.31 9 -4.62 9 -7 9 C-7 8.01 -7 7.02 -7 6 C-4.69 6 -2.38 6 0 6 C0 4.02 0 2.04 0 0 Z " fill="#DDDDDD" transform="translate(22,12)"/>
<path d="M0 0 C0.99 0 1.98 0 3 0 C1.65150163 4.35970831 -0.04907846 8.31341438 -2.125 12.375 C-2.66382813 13.43460938 -3.20265625 14.49421875 -3.7578125 15.5859375 C-4.16773438 16.38257812 -4.57765625 17.17921875 -5 18 C-5.99 18 -6.98 18 -8 18 C-6.65150163 13.64029169 -4.95092154 9.68658562 -2.875 5.625 C-2.33617187 4.56539062 -1.79734375 3.50578125 -1.2421875 2.4140625 C-0.83226562 1.61742187 -0.42234375 0.82078125 0 0 Z " fill="#E2E2E2" transform="translate(16,6)"/>
</svg>
